<svg xmlns="http://www.w3.org/2000/svg" viewBox="0 0 841.9 595.3">
  <g fill="#61DAFB">
    <path d="m666.3 296.5c0-32.5-40.7-63.3-103.1-82.4 14.4-63.6 8-114.2-20.2-130.4-63.6 38.5-74.8 74-93.2 107.2 56.1-2.9 95.7 29.7 103.1 60.3"/>
    <path d="m353.3 348.8c-142 113.9-379.2 73.1-384.3 12.6 4.2-58.3 285-168 436.6-12.6 58.8-136.8-21.4-178.6-49.9-94.9 53 49.7 41.3 103.8 13.6 160.6"/>
    <path d="m224 504.5c240.3-27.3 467.3-111.7 462-176.1 4.4 0-438.7 152.7-438.7 152.7-.9 0-6.9-36.9-11.7-41.7"/>
    <path d="m269.8 380.8c-7.7 84 101 101.7 108.1 130.5 14.1-14.6 22.5-34.3 28.1-50.9"/>
    <path d="m420.1 592.1c-21.9-15.7-41.6-24.6-64.8-23.8-47.7-2.7-65.4 24.9-98.8 24.7-37.8-2.1-77.2-21.6-98.8-28.7-66.8 13.8-129.5 42.5-176.2 81.6 100.6-59.9 82.1-120.9 109.5-181.1 122.2 53 282.9 152.6 282.9 152.6 49.3 47.7 82.4 48.7 102.2 57.5"/>
    <path d="m520.5 486.1c9.5-63.7-8.6-165-96.2-185.4 32.8 46.3-8.4 141.5-29.6 162.1l-.7 4.5 1.1-4.5c23.3 14.2 50 14.6 61.2-2.7"/>
    <path d="m105.5 267.6c84.9-104.1 228.1-278.5 228.1-278.5l-25.4-8.7c0 0-139.7 169.8-169.5 262.8l10.6 2.5z"/>
    <path d="m39 534.8l-5.8 73.3s4.7 1.6 14.7 0l24.9 2.3-2.8 6.7s-12.7 1.4-26.6-2.1l-40.8-2.7-2.4 6.1 5.4-.7 36-2.3c41.3-2.7 87.9-7.4 95.2-34s-2.4 120 43 63.5l8.1-.8s2.6 5.7 5.7 11.5 22.1 9.4 38.3 6.9 58.7-.3 58.7-.3l0-14.7-6.4.1-44.4-.1s-26.5-5.4-36.1-8.4 40.9-14.7 40.9-14.7l6.4 1.3 21.7 1.9 4.9-3s-13.5 3.4-24.1 4.4l81.9-15.9s.9 112.5 3.3 159.2l5.2 9.9s-12.3 8.4-26.3 7.1-80.2-6.1-115.3-6.2l-4.6 91 2.4-.8 14.5 27.5s81.7 .3 133.1-8.5 165.1 4 224 42.1l7.1 47.8 135.2-43.6 19.4-25.7 9-3-37-43.6 4.7-.5s-51.6 15.9-93.6-.1S965 633.2 965 633.2l5.3-50.8 31.7 10.5 5.5 31.7s-50.4-33.8-185.1-13.8c0 0 150.7-37.3 195-76.3s-27.6-47.5-185.7-36.8l10.7 24.4 2.8 8 95.7 14.6 104.4 54.2-5.7-47.5-103.6-26.2l-61.7-.8.7 14.7 6.4-.2 62.8.3 29.7 11.6l-285.8 27.5-2.6 17.7 7.7.8-63.4 16.3 1.9-4.7-95.2-10.2zm460.2 377.6l-3.9 39.5-88 19.7l-32.3 23.1c-24.6 17.8-8.6 97.8 11.9 80.8 6-1.8 29.3-4.2 47.4-9.6s112.3 6.2 142.1 4.8c27.5-1.7 52.1-17.4 47.4-26.9 2.8-2.1 31-3 31-3l13.3 25.8-4.7 6.8s-50.4 33.8-185.1 13.8c0 0-10.1-13.4-17.3 12.9 0 0-74.1-8.9-159.1-50.8l-6.1 14.1 5.3 5.6s25.9 3.7 37.7-3.9c0 0 83.6-.9 88.1 19.7l69.8 32 48.8 26.6 31-17.3c0-17.6-3.8-43.7-3.8-43.7s-106.3 .2-108.8 3.4l-9.8 5.5 7.5-14.6 5-2.6 4.4 22.2 3.8 14.3s67.5 17.7 121.3 1.9c0 0 4.6-4.6 2.6-11.8-1.4-6.7-12.5-14.2-11.3-19.1l48-21 12.6-29.4-4.8-21.3c-4.1-14.8-14.8-25.5 18.7-20.5 0 0-8.2 7.1-13 9.5 0 0 .7-6.1-3.8-12.5z"/>
  </g>
</svg>